<?xml version='1.0' encoding='utf-8'?>
<!DOCTYPE svg PUBLIC '-//W3C//DTD SVG 1.0//EN' 'http://www.w3.org/TR/2001/REC-SVG-20010904/DTD/svg10.dtd'>
<svg width="30" version="1.0" xmlns="http://www.w3.org/2000/svg" height="30" viewBox="0 0 30 30" xmlns:xlink="http://www.w3.org/1999/xlink" enable-background="new 0 0 30 30">
  <path fill-rule="evenodd" d="m16,19l0,0c0.03-1.521 0,11 0,11h-2v-10c0-4.099-3.376-7-7-7h-5c0,4.057 4.332,7.031 7,7 0,0 1.607,0 3,0v2h-2.894c-4.585,0-8.582-3.58-9.106-8 0,0 0-2.533 0-3h6.947c4.608,0 8.542,3.54 9.053,8zm-1.969-11l0,0c-0.03-1.523-0.031,3.999-0.031,3.999l2,2.001 .027-5c0-4.099 3.369-7 6.986-7h4.99c0,4.058-4.324,7.031-6.986,7 0,0-1.604,0-2.994,0v2h2.888c4.576,0 8.565-3.579 9.089-8 0,0 0-2.533 0-3h-6.934c-4.599,0-8.525,3.54-9.035,8z"/>
</svg>
