<?xml version="1.0" encoding="iso-8859-1"?>
<!-- Generator: Adobe Illustrator 19.0.0, SVG Export Plug-In . SVG Version: 6.00 Build 0)  -->
<svg version="1.1" id="Capa_1" xmlns="http://www.w3.org/2000/svg" xmlns:xlink="http://www.w3.org/1999/xlink" x="0px" y="0px" fill="#fff" height="60" width="35"
	 viewBox="0 0 511.999 511.999" style="enable-background:new 0 0 511.999 511.999;" xml:space="preserve">
<g>
	<g>
		<path d="M490.161,349.445c-13.269-30.035-31.889-61.691-54.743-93.467c72.342-100.746,97.645-194.765,56.504-235.906
			C464.57-7.292,413.958-6.652,349.443,21.84c-30.034,13.265-61.688,31.886-93.462,54.739
			C155.236,4.234,61.212-21.073,20.071,20.073c-41.139,41.143-15.833,135.162,56.51,235.903
			c-22.855,31.776-41.476,63.431-54.741,93.47c-28.498,64.521-29.126,115.121-1.768,142.479
			c13.377,13.377,32.342,19.737,55.319,19.737c47.678,0,112.614-27.409,180.605-76.236c31.772,22.85,63.418,41.467,93.449,54.73
			c32.957,14.56,62.27,21.843,86.719,21.843c23.424,0,42.376-6.685,55.759-20.075C519.287,464.566,518.659,413.966,490.161,349.445z
			 M359.431,44.45c29.807-13.166,55.971-19.803,76.673-19.803c16.623,0,29.723,4.284,38.345,12.901
			c28.329,28.329,9.983,106.266-54.447,197.846c-19.99-25.766-42.58-51.401-67.287-76.106
			c-25.047-25.048-50.59-47.535-75.911-67.183C304.984,72.352,332.906,56.166,359.431,44.45z M37.546,37.547
			c8.622-8.617,21.831-12.919,38.623-12.919c38.397,0,95.515,22.531,159.235,67.364c-25.768,19.992-51.407,42.584-76.118,67.295
			c-24.706,24.704-47.297,50.34-67.287,76.104C27.569,143.818,9.217,65.88,37.546,37.547z M37.546,474.45
			c-19.351-19.357-16.835-61.274,6.903-115.018c11.718-26.525,27.904-54.45,47.656-82.631c19.65,25.32,42.133,50.863,67.182,75.91
			c24.706,24.706,50.342,47.295,76.107,67.286C143.809,484.423,65.863,502.77,37.546,474.45z M176.76,335.236
			c-26.715-26.715-49.864-53.335-69.56-79.133c20.36-26.784,43.771-53.554,69.56-79.341c25.795-25.793,52.567-49.208,79.355-69.57
			c25.795,19.692,52.417,42.861,79.126,69.57c25.789,25.79,49.199,52.56,69.559,79.343c-19.695,25.799-42.844,52.421-69.559,79.138
			c-26.715,26.714-53.337,49.863-79.138,69.556C229.322,384.436,202.55,361.025,176.76,335.236z M474.449,474.45
			c-19.357,19.351-61.281,16.835-115.018-6.897c-26.521-11.716-54.441-27.902-82.622-47.656
			c25.32-19.645,50.861-42.136,75.906-67.182c25.048-25.048,47.532-50.593,67.18-75.914c19.753,28.181,35.942,56.105,47.657,82.63
			C491.289,413.176,493.806,455.093,474.449,474.45z"/>
	</g>
</g>
<g>
</g>
<g>
</g>
<g>
</g>
<g>
</g>
<g>
</g>
<g>
</g>
<g>
</g>
<g>
</g>
<g>
</g>
<g>
</g>
<g>
</g>
<g>
</g>
<g>
</g>
<g>
</g>
<g>
</g>
</svg>
